<svg id="visual" viewBox="0 0 900 200" width="900" height="200" xmlns="http://www.w3.org/2000/svg" xmlns:xlink="http://www.w3.org/1999/xlink" version="1.1"><path d="M0 117L16.7 117.5C33.3 118 66.7 119 100 116C133.3 113 166.7 106 200 110.3C233.3 114.7 266.7 130.3 300 129.3C333.3 128.3 366.7 110.7 400 118C433.3 125.3 466.7 157.7 500 169.3C533.3 181 566.7 172 600 152.7C633.3 133.3 666.7 103.7 700 88.5C733.3 73.3 766.7 72.7 800 88.5C833.3 104.3 866.7 136.7 883.3 152.8L900 169L900 0L883.3 0C866.7 0 833.3 0 800 0C766.7 0 733.3 0 700 0C666.7 0 633.3 0 600 0C566.7 0 533.3 0 500 0C466.7 0 433.3 0 400 0C366.7 0 333.3 0 300 0C266.7 0 233.3 0 200 0C166.7 0 133.3 0 100 0C66.7 0 33.3 0 16.7 0L0 0Z" fill="#930139"></path><path d="M0 138L16.7 137.2C33.3 136.3 66.7 134.7 100 127.7C133.3 120.7 166.7 108.3 200 99.5C233.3 90.7 266.7 85.3 300 93.7C333.3 102 366.7 124 400 132.7C433.3 141.3 466.7 136.7 500 139.2C533.3 141.7 566.7 151.3 600 152.8C633.3 154.3 666.7 147.7 700 129.3C733.3 111 766.7 81 800 74.2C833.3 67.3 866.7 83.7 883.3 91.8L900 100L900 0L883.3 0C866.7 0 833.3 0 800 0C766.7 0 733.3 0 700 0C666.7 0 633.3 0 600 0C566.7 0 533.3 0 500 0C466.7 0 433.3 0 400 0C366.7 0 333.3 0 300 0C266.7 0 233.3 0 200 0C166.7 0 133.3 0 100 0C66.7 0 33.3 0 16.7 0L0 0Z" fill="#87022b"></path><path d="M0 120L16.7 120C33.3 120 66.7 120 100 108.8C133.3 97.7 166.7 75.3 200 67.7C233.3 60 266.7 67 300 72.8C333.3 78.7 366.7 83.3 400 81C433.3 78.7 466.7 69.3 500 64.2C533.3 59 566.7 58 600 54.8C633.3 51.7 666.7 46.3 700 42.8C733.3 39.3 766.7 37.7 800 40.5C833.3 43.3 866.7 50.7 883.3 54.3L900 58L900 0L883.3 0C866.7 0 833.3 0 800 0C766.7 0 733.3 0 700 0C666.7 0 633.3 0 600 0C566.7 0 533.3 0 500 0C466.7 0 433.3 0 400 0C366.7 0 333.3 0 300 0C266.7 0 233.3 0 200 0C166.7 0 133.3 0 100 0C66.7 0 33.3 0 16.7 0L0 0Z" fill="#7a041e"></path><path d="M0 68L16.7 71.3C33.3 74.7 66.7 81.3 100 77.2C133.3 73 166.7 58 200 58C233.3 58 266.7 73 300 80.8C333.3 88.7 366.7 89.3 400 79.3C433.3 69.3 466.7 48.7 500 37.7C533.3 26.7 566.7 25.3 600 28.7C633.3 32 666.7 40 700 42.7C733.3 45.3 766.7 42.7 800 42.3C833.3 42 866.7 44 883.3 45L900 46L900 0L883.3 0C866.7 0 833.3 0 800 0C766.7 0 733.3 0 700 0C666.7 0 633.3 0 600 0C566.7 0 533.3 0 500 0C466.7 0 433.3 0 400 0C366.7 0 333.3 0 300 0C266.7 0 233.3 0 200 0C166.7 0 133.3 0 100 0C66.7 0 33.3 0 16.7 0L0 0Z" fill="#6c0712"></path><path d="M0 9L16.7 15.8C33.3 22.7 66.7 36.3 100 42C133.3 47.7 166.7 45.3 200 38.7C233.3 32 266.7 21 300 14.3C333.3 7.7 366.7 5.3 400 12.3C433.3 19.3 466.7 35.7 500 40.8C533.3 46 566.7 40 600 36.2C633.3 32.3 666.7 30.7 700 32.2C733.3 33.7 766.7 38.3 800 35.5C833.3 32.7 866.7 22.3 883.3 17.2L900 12L900 0L883.3 0C866.7 0 833.3 0 800 0C766.7 0 733.3 0 700 0C666.7 0 633.3 0 600 0C566.7 0 533.3 0 500 0C466.7 0 433.3 0 400 0C366.7 0 333.3 0 300 0C266.7 0 233.3 0 200 0C166.7 0 133.3 0 100 0C66.7 0 33.3 0 16.7 0L0 0Z" fill="#5f0903"></path></svg>