<svg id="visual" viewBox="0 0 900 100" width="900" height="100" xmlns="http://www.w3.org/2000/svg" xmlns:xlink="http://www.w3.org/1999/xlink" version="1.1"><path d="M0 19L11.5 30.7C23 42.3 46 65.7 69 71.3C92 77 115 65 138.2 57C161.3 49 184.7 45 207.8 41.5C231 38 254 35 277 37.7C300 40.3 323 48.7 346 54.2C369 59.7 392 62.3 415.2 63.5C438.3 64.7 461.7 64.3 484.8 64.3C508 64.3 531 64.7 554 60.5C577 56.3 600 47.7 623 42.8C646 38 669 37 692.2 32.5C715.3 28 738.7 20 761.8 19.2C785 18.3 808 24.7 831 29.3C854 34 877 37 888.5 38.5L900 40L900 0L888.5 0C877 0 854 0 831 0C808 0 785 0 761.8 0C738.7 0 715.3 0 692.2 0C669 0 646 0 623 0C600 0 577 0 554 0C531 0 508 0 484.8 0C461.7 0 438.3 0 415.2 0C392 0 369 0 346 0C323 0 300 0 277 0C254 0 231 0 207.8 0C184.7 0 161.3 0 138.2 0C115 0 92 0 69 0C46 0 23 0 11.5 0L0 0Z" fill="#000c58" stroke-linecap="round" stroke-linejoin="miter"></path></svg>