<svg id="visual" viewBox="0 0 900 100" width="900" height="100" xmlns="http://www.w3.org/2000/svg" xmlns:xlink="http://www.w3.org/1999/xlink" version="1.1"><path d="M0 54L13.7 52.2C27.3 50.3 54.7 46.7 82 47C109.3 47.3 136.7 51.7 163.8 55.3C191 59 218 62 245.2 64.7C272.3 67.3 299.7 69.7 327 64.2C354.3 58.7 381.7 45.3 409 40.8C436.3 36.3 463.7 40.7 491 44.2C518.3 47.7 545.7 50.3 573 53.3C600.3 56.3 627.7 59.7 654.8 61.2C682 62.7 709 62.3 736.2 59.2C763.3 56 790.7 50 818 45.5C845.3 41 872.7 38 886.3 36.5L900 35L900 0L886.3 0C872.7 0 845.3 0 818 0C790.7 0 763.3 0 736.2 0C709 0 682 0 654.8 0C627.7 0 600.3 0 573 0C545.7 0 518.3 0 491 0C463.7 0 436.3 0 409 0C381.7 0 354.3 0 327 0C299.7 0 272.3 0 245.2 0C218 0 191 0 163.8 0C136.7 0 109.3 0 82 0C54.7 0 27.3 0 13.7 0L0 0Z" fill="#540003" stroke-linecap="round" stroke-linejoin="miter"></path></svg>